# xmcd
#
# Track frame offsets:
# 150
# 17155
# 26922
# 37525
# 48212
# 65305
# 75577
# 94285
# 109702
# 125155
# 136990
# 149810
# 160627
# 171305
# 187170
# 204712
# 218365
# 233542
#
# Disc length: 3263 seconds
#
#
# Revision: 0
# Processed by: cddbd v1.5.1PL2 Copyright (c) Steve Scherf et al.
# Submitted via: FreeRIP 2.944 
#
DISCID=f70cbd12
DTITLE=Ricky Nelson Live 1983-1985 - Live 1983-1985
DYEAR=1989
DGENRE=country
TTITLE0=Stood up/Waitin' in school
TTITLE1=I got a feeling
TTITLE2=Travelin' man
TTITLE3=Hello Mary Lou
TTITLE4=Garden party
TTITLE5=You know what I mean
TTITLE6=That's allright
TTITLE7=Believe what you say
TTITLE8=Milk cow blues boogie
TTITLE9=Never be anyone else but you
TTITLE10=Fools rush in
TTITLE11=It's up to you
TTITLE12=Poor little fool
TTITLE13=It's late
TTITLE14=Honky tonk women
TTITLE15=My bucket's got a hole in it
TTITLE16=Boppin' the blues
TTITLE17=Lonesome town
EXTD=
EXTT0=
EXTT1=
EXTT2=
EXTT3=
EXTT4=
EXTT5=
EXTT6=
EXTT7=
EXTT8=
EXTT9=
EXTT10=
EXTT11=
EXTT12=
EXTT13=
EXTT14=
EXTT15=
EXTT16=
EXTT17=
PLAYORDER=
